<svg width="30" height="30" viewBox="0 0 58 58" fill="none" xmlns="http://www.w3.org/2000/svg">
                  <path d="M29 10.875C29.009 9.36307 28.4507 7.90274 27.4355 6.78235C26.4203 5.66195 25.0218 4.96294 23.5164 4.82331C22.0109 4.68369 20.5078 5.11362 19.3038 6.0282C18.0999 6.94278 17.2826 8.27554 17.0133 9.76332C16.2167 9.91257 15.4582 10.2206 14.7831 10.669C14.1079 11.1175 13.5299 11.6972 13.0835 12.3737C12.637 13.0501 12.3312 13.8095 12.1843 14.6066C12.0374 15.4036 12.0524 16.2221 12.2283 17.0133C11.1376 17.2069 10.1211 17.6967 9.28997 18.4292C8.45884 19.1616 7.84508 20.1084 7.51579 21.1661C7.1865 22.2238 7.15436 23.3517 7.42288 24.4265C7.69141 25.5012 8.25026 26.4814 9.03833 27.26C7.71287 27.8719 6.60302 28.8697 5.85405 30.1229C5.10508 31.376 4.75187 32.8261 4.84066 34.2833C4.92945 35.7405 5.4561 37.1369 6.35168 38.2899C7.24726 39.4428 8.47004 40.2985 9.86 40.745C9.59461 41.7475 9.59177 42.8015 9.85175 43.8055C10.1117 44.8095 10.6258 45.7297 11.3444 46.4774C12.063 47.2252 12.962 47.7754 13.9549 48.075C14.9477 48.3746 16.001 48.4137 17.0133 48.1883C17.2642 49.5703 17.9888 50.8218 19.0625 51.7274C20.1361 52.6331 21.4918 53.1363 22.8963 53.1506C24.3009 53.1649 25.6665 52.6894 26.7584 51.8058C27.8503 50.9222 28.6002 49.6858 28.8792 48.3091L29 48.3333V10.875Z" stroke="black" stroke-width="4" stroke-linecap="round" stroke-linejoin="round"/>
                  <path d="M38.6667 19.3333V12.0833C38.6667 9.425 40.8417 7.25 43.5 7.25" stroke="black" stroke-width="4" stroke-linecap="round" stroke-linejoin="round"/>
                  <path d="M29 31.4167H38.6667" stroke="black" stroke-width="4" stroke-linecap="round" stroke-linejoin="round"/>
                  <path d="M29 43.5H43.5C44.7819 43.5 46.0113 44.0092 46.9177 44.9157C47.8241 45.8221 48.3333 47.0515 48.3333 48.3333V50.75" stroke="black" stroke-width="4" stroke-linecap="round" stroke-linejoin="round"/>
                  <path d="M29 19.3333H48.3333" stroke="black" stroke-width="4" stroke-linecap="round" stroke-linejoin="round"/>
                  <path d="M49.5417 19.3333C49.5417 19.6538 49.4144 19.9611 49.1878 20.1878C48.9611 20.4144 48.6538 20.5417 48.3333 20.5417C48.0129 20.5417 47.7055 20.4144 47.4789 20.1878C47.2523 19.9611 47.125 19.6538 47.125 19.3333C47.125 19.0129 47.2523 18.7055 47.4789 18.4789C47.7055 18.2523 48.0129 18.125 48.3333 18.125C48.6538 18.125 48.9611 18.2523 49.1878 18.4789C49.4144 18.7055 49.5417 19.0129 49.5417 19.3333Z" stroke="black" stroke-width="4" stroke-linecap="round" stroke-linejoin="round"/>
                  <path d="M39.875 31.4166C39.875 31.7371 39.7477 32.0445 39.5211 32.2711C39.2945 32.4977 38.9871 32.625 38.6667 32.625C38.3462 32.625 38.0389 32.4977 37.8122 32.2711C37.5856 32.0445 37.4583 31.7371 37.4583 31.4166C37.4583 31.0962 37.5856 30.7888 37.8122 30.5622C38.0389 30.3356 38.3462 30.2083 38.6667 30.2083C38.9871 30.2083 39.2945 30.3356 39.5211 30.5622C39.7477 30.7888 39.875 31.0962 39.875 31.4166Z" stroke="black" stroke-width="4" stroke-linecap="round" stroke-linejoin="round"/>
                  <path d="M49.5417 50.75C49.5417 51.0705 49.4144 51.3778 49.1878 51.6044C48.9611 51.831 48.6538 51.9584 48.3333 51.9584C48.0129 51.9584 47.7055 51.831 47.4789 51.6044C47.2523 51.3778 47.125 51.0705 47.125 50.75C47.125 50.4296 47.2523 50.1222 47.4789 49.8956C47.7055 49.669 48.0129 49.5417 48.3333 49.5417C48.6538 49.5417 48.9611 49.669 49.1878 49.8956C49.4144 50.1222 49.5417 50.4296 49.5417 50.75Z" stroke="black" stroke-width="4" stroke-linecap="round" stroke-linejoin="round"/>
                  <path d="M44.7083 7.25002C44.7083 7.57049 44.581 7.87783 44.3544 8.10444C44.1278 8.33105 43.8205 8.45835 43.5 8.45835C43.1795 8.45835 42.8722 8.33105 42.6456 8.10444C42.419 7.87783 42.2917 7.57049 42.2917 7.25002C42.2917 6.92955 42.419 6.62221 42.6456 6.3956C42.8722 6.16899 43.1795 6.04169 43.5 6.04169C43.8205 6.04169 44.1278 6.16899 44.3544 6.3956C44.581 6.62221 44.7083 6.92955 44.7083 7.25002Z" stroke="black" stroke-width="4" stroke-linecap="round" stroke-linejoin="round"/>
                </svg>